<?xml version="1.0" encoding="UTF-8" standalone="no"?>
<!-- Created with Inkscape (http://www.inkscape.org/) -->

<svg
   xmlns:dc="http://purl.org/dc/elements/1.1/"
   xmlns:cc="http://creativecommons.org/ns#"
   xmlns:rdf="http://www.w3.org/1999/02/22-rdf-syntax-ns#"
   xmlns:svg="http://www.w3.org/2000/svg"
   xmlns="http://www.w3.org/2000/svg"
   xmlns:xlink="http://www.w3.org/1999/xlink"
   xmlns:sodipodi="http://sodipodi.sourceforge.net/DTD/sodipodi-0.dtd"
   xmlns:inkscape="http://www.inkscape.org/namespaces/inkscape"
   width="386.47659"
   height="188.15675"
   id="svg2"
   inkscape:label="Pozadí"
   version="1.1"
   inkscape:version="0.48.2 r9819"
   sodipodi:docname="logo-white-bg.svg"
   inkscape:export-filename="/home/standa/www/novymail/logo/logo-white-bg.png"
   inkscape:export-xdpi="90"
   inkscape:export-ydpi="90">
  <defs
     id="defs3918">
    <radialGradient
       inkscape:collect="always"
       xlink:href="#linearGradient4715"
       id="radialGradient3889"
       gradientUnits="userSpaceOnUse"
       gradientTransform="matrix(0.927669,0,0,0.5044825,-331.59002,327.47769)"
       cx="368.57141"
       cy="843.79077"
       fx="368.57141"
       fy="843.79077"
       r="303.14285" />
    <linearGradient
       id="linearGradient4715">
      <stop
         style="stop-color:#fef9fa;stop-opacity:0.18431373;"
         offset="0"
         id="stop4723" />
      <stop
         id="stop4739"
         offset="0.88545752"
         style="stop-color:#9a9a98;stop-opacity:0.21960784;" />
      <stop
         id="stop4725"
         offset="1"
         style="stop-color:#373739;stop-opacity:0.26086956;" />
    </linearGradient>
  </defs>
  <sodipodi:namedview
     id="base"
     pagecolor="#ffffff"
     bordercolor="#666666"
     borderopacity="1.0"
     inkscape:pageopacity="0.0"
     inkscape:pageshadow="2"
     inkscape:zoom="1"
     inkscape:cx="111.12052"
     inkscape:cy="91.221199"
     inkscape:document-units="px"
     inkscape:current-layer="layer1"
     showgrid="false"
     fit-margin-top="50"
     fit-margin-left="50"
     fit-margin-right="50"
     fit-margin-bottom="50"
     inkscape:window-width="979"
     inkscape:window-height="634"
     inkscape:window-x="1"
     inkscape:window-y="60"
     inkscape:window-maximized="0" />
  <metadata
     id="metadata3921">
    <rdf:RDF>
      <cc:Work
         rdf:about="">
        <dc:format>image/svg+xml</dc:format>
        <dc:type
           rdf:resource="http://purl.org/dc/dcmitype/StillImage" />
        <dc:title></dc:title>
      </cc:Work>
    </rdf:RDF>
  </metadata>
  <g
     inkscape:label="Vrstva 1"
     inkscape:groupmode="layer"
     id="layer1"
     transform="translate(-263.87947,-435.42664)">
    <g
       style="font-size:81.23845673px;font-style:normal;font-variant:normal;font-weight:500;font-stretch:normal;text-indent:0;text-align:start;text-decoration:none;line-height:125%;letter-spacing:0px;word-spacing:0px;text-transform:none;direction:ltr;block-progression:tb;writing-mode:lr-tb;text-anchor:start;baseline-shift:baseline;color:#000000;fill:#660066;fill-opacity:1;fill-rule:nonzero;stroke:none;stroke-width:1px;marker:none;visibility:visible;display:inline;overflow:visible;enable-background:accumulate;font-family:Scriptina;-inkscape-font-specification:Scriptina Medium"
       id="text3087">
      <path
         d="m 424.72297,496.15938 c -1.392,-0.048 -2.928,0.192 -4.656,0.768 -1.728,0.576 -3.648,1.44 -5.76,2.64 -1.92,1.104 -3.648,2.35201 -5.328,3.648 -1.68,1.344 -3.264,2.83201 -4.8,4.464 -2.976,3.216 -4.56,5.80801 -4.656,7.872 -0.096,2.112 0.624,3.312 2.16,3.6 0.816,0.144 1.776,0.048 2.88,-0.288 0.384,-0.096 0.576,-0.24 0.576,-0.384 0,-0.192 -0.192,-0.288 -0.576,-0.192 -0.432,0.096 -0.912,0.144 -1.392,0.096 -0.528,0 -1.008,-0.048 -1.488,-0.144 -0.816,-0.144 -1.248,-0.672 -1.248,-1.536 0,-2.39999 1.584,-5.232 4.8,-8.544 1.488,-1.53599 3.072,-2.928 4.752,-4.224 1.68,-1.29599 3.552,-2.544 5.568,-3.696 3.984,-2.25599 7.104,-3.312 9.312,-3.168 2.352,0.144 3.504,1.63201 3.504,4.272 0,0.432 -0.048,0.912 -0.096,1.392 -0.096,0.48 -0.24,0.96 -0.384,1.488 -1.392,4.368 -5.95201,12.91202 -13.728,25.728 -0.048,0.144 -0.144,0.288 -0.144,0.384 -0.096,0.144 -0.096,0.24 -0.096,0.336 0,0.336 0.192,0.528 0.624,0.528 0.432,0 0.864,-0.24 1.2,-0.768 0.48,-0.768 1.152,-1.776 2.016,-2.976 0.912,-1.2 2.016,-2.592 3.312,-4.272 1.584,-1.96799 3.12,-3.84 4.704,-5.568 1.584,-1.72799 3.168,-3.408 4.8,-4.944 4.032,-3.74399 7.488,-6.24 10.32,-7.44 0.672,-0.288 1.248,-0.432 1.728,-0.432 0.72,0 1.104,0.336 1.104,1.008 0,0.528 -0.192,1.152 -0.528,1.824 l -6.96,14.112 c -0.528,1.056 -1.152,2.49601 -1.872,4.272 -0.72,1.776 -1.488,3.74401 -2.304,5.856 -0.816,2.16 -1.632,4.32001 -2.448,6.576 -0.816,2.256 -1.536,4.36801 -2.16,6.336 -0.624,1.968 -1.152,3.69601 -1.536,5.136 -0.432,1.488 -0.672,2.448 -0.672,2.976 0,0.336 0.048,0.72 0.144,1.104 0.096,0.384 0.24,0.72 0.432,1.056 0.192,0.336 0.432,0.576 0.672,0.816 0.24,0.24 0.576,0.336 0.912,0.336 0.864,0 2.16,-0.672 3.84,-2.016 1.584,-1.24799 2.592,-2.4 3.168,-3.264 0.288,-0.432 0.432,-0.672 0.432,-0.816 0,-0.048 -0.048,-0.144 -0.096,-0.192 -0.096,0 -0.336,0.192 -0.72,0.576 -3.312,3.312 -5.664,4.944 -7.008,4.944 -0.528,0 -0.768,-0.48 -0.768,-1.44 0,-0.144 0.048,-0.336 0.096,-0.48 0.048,-0.192 0.096,-0.384 0,-0.528 -0.24,-0.528 -0.24,-1.488 0.096,-2.928 0.336,-1.48799 0.864,-3.216 1.536,-5.184 0.72,-1.96799 1.536,-4.128 2.448,-6.384 0.96,-2.30399 1.92,-4.56 2.88,-6.72 0.96,-2.15999 1.872,-4.176 2.736,-6 0.912,-1.82399 1.632,-3.264 2.208,-4.32 1.152,-2.15999 2.256,-4.224 3.408,-6.288 1.152,-2.06399 2.304,-4.176 3.456,-6.336 0.048,-0.144 0.096,-0.288 0.144,-0.48 0,-0.192 0,-0.384 0,-0.576 0,-0.432 -0.048,-0.864 -0.096,-1.296 -0.048,-0.432 -0.336,-0.912 -0.768,-1.44 -0.336,-0.432 -0.672,-0.72 -1.008,-0.96 -0.336,-0.24 -0.72,-0.336 -1.152,-0.24 -2.832,0.48 -6.816,3.21601 -12,8.304 -1.92,1.872 -3.696,3.64801 -5.232,5.376 -1.584,1.728 -3.072,3.40801 -4.368,5.088 -0.288,0.528 -0.528,0.768 -0.768,0.768 -0.144,0 -0.192,-0.048 -0.192,-0.192 0,-0.24 0.144,-0.528 0.336,-0.864 2.592,-4.27199 4.56,-7.92 6,-10.848 1.488,-2.97599 2.448,-5.328 2.88,-7.056 0.192,-0.72 0.24,-1.488 0.24,-2.208 0,-1.67999 -0.384,-3.024 -1.104,-4.08 -0.816,-1.24799 -1.92,-1.92 -3.312,-1.968"
         style="font-size:48px;font-weight:bold;fill:#660066;marker:none;-inkscape-font-specification:Scriptina Bold"
         id="path4650" />
      <path
         d="m 440.63047,532.15938 c 2.832,-0.432 6.09601,-2.256 9.84,-5.472 1.92,-1.63199 3.36,-3.12 4.272,-4.512 0.96,-1.39199 1.488,-2.736 1.584,-3.936 0,-0.048 0,-0.144 -0.048,-0.24 -0.048,-0.096 -0.048,-0.192 -0.096,-0.288 -0.048,-0.096 -0.048,-0.192 0,-0.288 0.288,-0.384 0.912,-0.576 1.92,-0.576 0.48,0 0.72,-0.096 0.72,-0.288 0,-0.048 -0.24,-0.144 -0.72,-0.192 -1.344,-0.048 -2.544,-0.048 -3.552,-0.096 -1.056,-0.048 -1.968,-0.048 -2.688,-0.096 -0.048,-0.048 -0.096,-0.048 -0.192,-0.096 0,-0.048 -0.096,-0.048 -0.144,-0.096 -0.96,-0.528 -1.632,-0.912 -2.16,-0.864 -0.72,0.048 -1.392,0.384 -2.112,1.056 -0.24,0.144 -0.384,0.192 -0.528,0.192 -0.048,0 -0.624,0 -1.824,0.048 -0.72,0.048 -1.152,0.144 -1.248,0.288 -0.096,0.144 -0.144,0.288 -0.144,0.384 0,0.192 0.144,0.384 0.432,0.576 0.288,0.24 0.576,0.432 0.864,0.576 0.192,0.048 0.24,0.192 0.096,0.432 -4.22399,5.184 -6.384,9.12001 -6.432,11.76 0,0.24 0.048,0.48 0.192,0.72 0.144,0.24 0.336,0.432 0.528,0.576 0.24,0.144 0.48,0.288 0.72,0.336 0.24,0.096 0.48,0.144 0.72,0.096 m -0.672,-2.544 c 1.872,-4.41599 4.51201,-8.208 7.92,-11.376 0.48,-0.336 0.768,-0.48 0.816,-0.432 0.576,-0.24 1.2,-0.384 1.872,-0.432 0.672,-0.096 1.392,-0.096 2.16,0 1.44,0.144 2.016,0.72 1.824,1.68 -0.48,2.352 -2.352,4.89601 -5.52,7.776 -3.072,2.784 -5.664,4.32 -7.824,4.704 -1.008,0.192 -1.536,-0.096 -1.536,-0.864 0,-0.336 0.096,-0.72 0.288,-1.056"
         style="font-size:48px;font-weight:bold;fill:#660066;marker:none;-inkscape-font-specification:Scriptina Bold"
         id="path4652" />
      <path
         d="m 455.00197,530.81538 c 0.384,0.048 0.672,0 0.912,-0.048 0.192,-0.048 0.336,-0.144 0.432,-0.192 0.096,-0.048 0.144,-0.096 0.144,-0.096 0.624,0 1.296,-0.384 2.064,-1.056 1.584,-1.39199 3.6,-3.456 5.952,-6.24 1.008,-1.2 1.92,-2.304 2.688,-3.312 0.768,-1.008 1.44,-1.92 1.968,-2.736 0.288,-0.336 0.48,-0.48 0.576,-0.384 0.144,0.144 0.384,0.288 0.624,0.384 0.24,0.144 0.576,0.24 0.912,0.336 0.432,0.096 0.672,0 0.672,-0.336 0,-0.096 -0.048,-0.192 -0.144,-0.24 -0.384,-0.288 -0.576,-0.624 -0.624,-1.008 -0.048,-0.624 0.384,-1.584 1.296,-2.88 0.048,-0.048 0,-0.096 -0.048,-0.24 -0.096,-0.144 -0.192,-0.24 -0.336,-0.336 -0.144,-0.144 -0.288,-0.24 -0.432,-0.288 -0.144,-0.096 -0.288,-0.144 -0.336,-0.096 -0.24,0.144 -0.48,0.288 -0.816,0.528 -0.336,0.24 -0.72,0.528 -1.152,0.864 -0.24,0.624 -0.384,1.104 -0.432,1.536 -0.096,0.432 -0.192,0.72 -0.288,0.864 -0.768,1.104 -1.584,2.208 -2.352,3.312 -0.816,1.104 -1.632,2.208 -2.448,3.312 -1.2,1.632 -2.304,3.024 -3.216,4.128 -0.912,1.104 -1.728,1.968 -2.4,2.496 -0.48,0.384 -0.864,0.576 -1.2,0.576 -0.48,0 -0.72,-0.336 -0.72,-1.056 0,-0.288 0.048,-0.624 0.144,-1.008 0.72,-2.54399 2.736,-6 5.424,-10.752 0.048,-0.048 0.048,-0.096 0.096,-0.192 0.048,0 0.048,-0.096 0.048,-0.144 0,-0.432 -0.24,-0.624 -0.768,-0.624 -0.24,0 -0.384,0.048 -0.48,0.192 -3.98399,5.472 -6.336,9.98401 -7.152,13.536 -0.096,0.24 0,0.528 0.336,0.768 0.336,0.24 0.672,0.384 1.056,0.432"
         style="font-size:48px;font-weight:bold;fill:#660066;marker:none;-inkscape-font-specification:Scriptina Bold"
         id="path4654" />
      <path
         d="m 480.88897,531.34338 c -4.79999,0.912 -9.456,2.06401 -14.016,3.408 -4.55999,1.344 -9.072,2.88001 -13.536,4.608 -12.91199,5.088 -20.592,10.51201 -23.04,16.224 -0.48,1.152 -0.72,2.35201 -0.72,3.6 0,3.792 1.96801,7.15201 5.808,10.224 3.84,3.072 8.06401,4.464 12.672,4.176 13.43999,-0.864 24.86401,-14.73602 34.32,-41.664 3.696,-0.768 8.40001,-1.152 14.208,-1.152 0.72,0 1.392,0 1.968,0.048 0.624,0 1.152,0 1.584,0.048 1.584,0.144 2.352,0.768 2.352,1.92 0,1.392 -0.96,2.97601 -2.832,4.752 -0.336,0.24 -0.48,0.432 -0.48,0.624 0,0.048 0.048,0.048 0.096,0.048 0.192,0 0.432,-0.144 0.672,-0.384 1.68,-1.29599 2.688,-2.352 3.12,-3.168 0.192,-0.288 0.288,-0.624 0.288,-1.056 0,-0.432 -0.096,-0.816 -0.288,-1.2 -0.192,-0.384 -0.432,-0.72 -0.72,-1.056 -0.336,-0.336 -0.672,-0.576 -1.008,-0.816 -0.384,-0.24 -0.768,-0.336 -1.104,-0.432 -0.864,-0.192 -2.064,-0.288 -3.648,-0.288 -4.46399,0 -9.12,0.432 -13.968,1.344 1.392,-4.12799 2.4,-7.344 3.024,-9.648 0.144,-0.288 0.288,-0.528 0.384,-0.672 0.144,-0.192 0.24,-0.384 0.384,-0.528 0.048,-0.336 -0.048,-0.624 -0.288,-0.912 -0.288,-0.288 -0.72,-0.432 -1.248,-0.384 -0.24,0 -0.432,0.144 -0.624,0.336 -0.24,0.24 -0.432,0.48 -0.576,0.768 -0.432,0.432 -1.056,0.912 -1.776,1.488 -0.768,0.576 -1.68,1.248 -2.736,1.968 -1.344,0.912 -2.544,1.68 -3.552,2.256 -1.056,0.624 -1.968,1.056 -2.688,1.344 -0.24,0.096 -0.528,0.096 -0.864,0 -0.24,-0.096 -0.384,-0.288 -0.384,-0.624 0,-0.144 0.048,-0.384 0.144,-0.624 0.624,-1.2 1.536,-2.784 2.88,-4.704 1.536,-2.20799 2.688,-3.456 3.36,-3.744 -0.048,-0.528 -0.336,-0.816 -0.768,-0.768 -0.24,0 -0.96,0.288 -2.112,0.816 -1.104,0.48 -1.68,0.816 -1.824,1.056 -0.096,0.192 -0.144,0.48 -0.048,0.912 0,0.432 0,0.672 -0.048,0.816 -2.736,4.944 -4.176,7.728 -4.368,8.352 -0.048,0.24 0,0.432 0.192,0.672 0.192,0.24 0.432,0.336 0.72,0.336 0.096,0 0.24,0 0.432,-0.096 1.824,-0.72 4.272,-2.112 7.344,-4.176 2.352,-1.58399 4.272,-3.024 5.856,-4.416 -0.048,0.432 -0.144,1.056 -0.288,1.776 -0.144,0.72 -0.384,1.632 -0.624,2.736 -0.576,2.496 -1.104,4.46401 -1.632,5.856 m -49.392,25.536 c 2.112,-5.32799 8.40001,-10.368 18.816,-15.168 8.73599,-4.03199 18.86401,-7.2 30.384,-9.552 -1.392,4.272 -2.976,8.35201 -4.752,12.192 -1.776,3.888 -3.744,7.58401 -5.904,11.04 -7.00799,11.27999 -14.40001,17.04 -22.08,17.328 -4.46399,0.192 -8.448,-1.056 -12,-3.792 -3.40799,-2.59199 -5.088,-5.616 -5.088,-8.976 0,-0.528 0.048,-1.056 0.144,-1.536 0.144,-0.528 0.288,-1.008 0.48,-1.536"
         style="font-size:48px;font-weight:bold;fill:#660066;marker:none;-inkscape-font-specification:Scriptina Bold"
         id="path4656" />
    </g>
    <g
       style="font-size:103.51200867px;font-style:italic;font-variant:normal;font-weight:bold;font-stretch:normal;text-indent:0;text-align:start;text-decoration:none;line-height:125%;letter-spacing:0px;word-spacing:0px;text-transform:none;direction:ltr;block-progression:tb;writing-mode:lr-tb;text-anchor:start;baseline-shift:baseline;color:#000000;fill:#660066;fill-opacity:1;fill-rule:nonzero;stroke:none;stroke-width:1px;marker:none;visibility:visible;display:inline;overflow:visible;enable-background:accumulate;font-family:Monotype Corsiva;-inkscape-font-specification:Monotype Corsiva Bold Italic"
       id="text3091">
      <g
         id="g4667">
        <path
           id="path4659"
           style="font-size:60px;fill:#660066;marker:none"
           d="m 509.62366,527.9364 -2.34375,-31.52344 c -0.50784,5.31253 -1.44534,10.27346 -2.8125,14.88282 -1.36721,4.58985 -2.91994,8.14453 -4.65821,10.66406 -1.73829,2.5 -3.51564,4.25781 -5.33203,5.27344 -1.81641,1.01562 -3.61329,1.52343 -5.39062,1.52343 -1.07423,0 -1.9043,-0.22461 -2.49024,-0.67382 -0.56641,-0.42969 -0.84961,-0.95704 -0.84961,-1.58204 0,-0.52734 0.20508,-0.98632 0.61524,-1.37695 0.42968,-0.39062 0.96679,-0.58593 1.61133,-0.58594 0.46874,10e-6 1.14257,0.10743 2.02148,0.32227 0.80077,0.21484 1.46484,0.32227 1.99219,0.32227 0.91796,0 1.87499,-0.3418 2.87109,-1.0254 1.50389,-1.01562 2.98827,-2.83202 4.45313,-5.44921 1.48435,-2.63671 2.80271,-6.29882 3.95508,-10.98633 1.17185,-4.70701 1.90427,-9.29685 2.19726,-13.76953 -4.43361,3e-5 -8.03712,1.10354 -10.81055,3.31054 -2.20704,1.75784 -3.31055,3.72073 -3.31054,5.88868 -10e-6,0.95705 0.52733,2.10939 1.58203,3.45703 0.56639,0.72267 0.8496,1.30861 0.84961,1.75781 -10e-6,0.50783 -0.16603,0.92775 -0.49805,1.25976 -0.31251,0.33205 -0.69337,0.49807 -1.14258,0.49805 -0.76173,2e-5 -1.43555,-0.42967 -2.02148,-1.28906 -0.80079,-1.15233 -1.20118,-2.51951 -1.20117,-4.10156 -1e-5,-2.22654 0.74218,-4.35545 2.22656,-6.38672 1.50389,-2.05075 3.57421,-3.60349 6.21094,-4.65821 2.65623,-1.07418 5.76169,-1.62105 9.3164,-1.64062 1.91404,3e-5 3.44724,-0.17575 4.59961,-0.52734 -0.0586,1.75784 -0.0879,2.70511 -0.0879,2.84179 -3e-5,0.17582 0.0293,0.57621 0.0879,1.20117 l 1.72852,22.26563 c 4.70699,-8.22264 9.3066,-14.99021 13.79883,-20.30273 3.18354,-3.7695 5.95698,-6.31833 8.32031,-7.64649 -1.34771,3.71097 -2.79302,8.60354 -4.33594,14.67774 l -3.57422,14.0625 c -0.19536,0.78125 -0.45903,1.92383 -0.79101,3.42773 l -0.70313,3.13477 c 1.48433,0.35156 2.84175,0.52734 4.07227,0.52734 0.99604,0 2.06049,-0.11719 3.19336,-0.35156 l -0.38086,1.69922 c -0.99615,0.17578 -1.76763,0.26367 -2.31446,0.26367 -0.80082,0 -1.95317,-0.0879 -3.45703,-0.26367 -1.23051,-0.15626 -2.32426,-0.23438 -3.28125,-0.23438 -1.01566,0 -2.16801,0.19531 -3.45703,0.58594 1.07418,-2.8125 2.19723,-6.59179 3.36914,-11.33789 l 2.25586,-8.96485 c 0.95699,-3.86716 1.78707,-6.52341 2.49024,-7.96875 -1.56255,1.77737 -3.97466,5.03909 -7.23633,9.78516 -2.61723,3.82814 -5.54691,8.67188 -8.78906,14.53125 l -2.54883,4.48242" />
        <path
           id="path4661"
           style="font-size:60px;fill:#660066;marker:none"
           d="m 557.43616,501.56921 1.93359,-0.41015 -2.19726,7.41211 c -0.87893,2.94923 -1.70901,6.34767 -2.49024,10.19531 -0.42971,2.08985 -0.64455,3.4375 -0.64453,4.04297 -2e-5,0.60547 0.24412,0.9082 0.73242,0.9082 0.31248,0 0.81053,-0.20507 1.49414,-0.61523 1.21091,-0.72265 2.37302,-1.62109 3.48633,-2.69532 l 0.9375,1.14258 c -2.22659,2.03126 -3.65237,3.26172 -4.27734,3.69141 -1.25003,0.85937 -2.44143,1.49414 -3.57422,1.9043 -0.74221,0.27343 -1.46486,0.41015 -2.16797,0.41015 -0.50783,0 -0.88869,-0.11719 -1.14258,-0.35156 -0.25392,-0.23438 -0.38088,-0.57617 -0.38086,-1.02539 -2e-5,-0.29297 0.0781,-0.69336 0.23438,-1.20117 l 1.17187,-3.98438 c -1.6797,2.01172 -3.68165,3.74024 -6.00586,5.18555 -1.42579,0.89844 -2.73438,1.34765 -3.92578,1.34766 -1.13282,-10e-6 -2.00196,-0.4004 -2.60742,-1.20118 -0.82032,-1.07421 -1.23047,-2.48046 -1.23047,-4.21875 0,-2.0703 0.54687,-4.37499 1.64063,-6.91406 1.11327,-2.53905 2.59764,-4.84373 4.45312,-6.91406 1.85546,-2.07029 3.80858,-3.59373 5.85938,-4.57031 1.58201,-0.74217 3.61326,-1.11326 6.09375,-1.11329 0.62497,3e-5 1.25974,0.0391 1.90429,0.11719 l 0.70313,-1.14258 m -3.63282,4.48243 c -1.0547,-0.21483 -1.94337,-0.32225 -2.66601,-0.32227 -1.75783,2e-5 -3.29103,0.4883 -4.59961,1.46484 -1.30861,0.95705 -2.52931,2.69533 -3.66211,5.21485 -1.11329,2.50001 -1.66993,5.00001 -1.66992,7.5 -10e-6,1.32813 0.2246,2.28516 0.67383,2.87109 0.44921,0.58594 1.03514,0.87891 1.75781,0.87891 1.34764,0 2.79295,-0.72265 4.33594,-2.16797 1.54295,-1.46484 2.67576,-3.56445 3.39843,-6.29883 l 2.43164,-9.14062" />
        <path
           id="path4663"
           style="font-size:60px;fill:#660066;marker:none"
           d="m 575.13147,489.4696 c 0.60545,4e-5 1.1035,0.20512 1.49414,0.61524 0.39061,0.39066 0.58592,0.89847 0.58594,1.52344 -2e-5,0.85941 -0.30276,1.62112 -0.90821,2.28515 -0.58595,0.64457 -1.25001,0.96683 -1.99218,0.9668 -0.58596,3e-5 -1.07424,-0.20505 -1.46485,-0.61523 -0.39064,-0.41013 -0.58595,-0.94724 -0.58593,-1.61133 -2e-5,-0.87887 0.28318,-1.62106 0.84961,-2.22657 0.56639,-0.62496 1.24021,-0.93746 2.02148,-0.9375 m -11.54297,19.39454 -1.28906,-0.9961 c 1.95312,-2.14841 3.73046,-3.67185 5.33203,-4.57031 1.62108,-0.91794 2.99803,-1.37693 4.13086,-1.37695 0.62498,2e-5 1.1035,0.13674 1.43555,0.41015 0.33201,0.27346 0.49803,0.64456 0.49804,1.11328 -10e-6,0.56643 -0.63478,2.96877 -1.90429,7.20704 -2.07033,6.9336 -3.10548,11.11328 -3.10547,12.53906 -10e-6,0.27344 0.0684,0.50781 0.20508,0.70312 0.1367,0.17579 0.28319,0.26368 0.43945,0.26367 0.62499,10e-6 2.22655,-1.21093 4.80469,-3.63281 l 1.14257,1.11328 c -2.67579,2.51954 -4.62892,4.13086 -5.85937,4.83399 -1.23048,0.70312 -2.23634,1.05468 -3.01758,1.05469 -0.6836,-10e-6 -1.23048,-0.21485 -1.64062,-0.64454 -0.39064,-0.42968 -0.58595,-1.02539 -0.58594,-1.78711 -10e-6,-2.4414 1.46483,-8.40819 4.39453,-17.90039 0.13671,-0.44919 0.20507,-0.84959 0.20508,-1.20117 -10e-6,-0.3906 -0.17579,-0.58591 -0.52735,-0.58594 -0.39063,3e-5 -0.83985,0.15628 -1.34765,0.46875 -0.48829,0.31253 -1.59181,1.30862 -3.31055,2.98829" />
        <path
           id="path4665"
           style="font-size:60px;fill:#660066;marker:none"
           d="m 589.25256,519.64539 0.9961,1.05468 c -1.52346,1.71876 -3.3301,3.29102 -5.41992,4.7168 -2.07033,1.40625 -3.77931,2.10937 -5.12696,2.10938 -0.60547,-10e-6 -1.10352,-0.23438 -1.49414,-0.70313 -0.39063,-0.44922 -0.58594,-1.07422 -0.58594,-1.875 0,-1.5625 0.60547,-4.80468 1.81641,-9.72656 l 3.16406,-12.86133 c 1.15233,-4.64841 2.11913,-7.76364 2.90039,-9.3457 1.21093,-2.40231 2.91991,-4.26754 5.12696,-5.59571 2.22654,-1.32808 4.57029,-1.99214 7.03125,-1.99218 0.83981,4e-5 1.49411,0.20511 1.96289,0.61523 0.48825,0.39067 0.73239,0.86918 0.73242,1.43555 -3e-5,0.62504 -0.2344,1.14261 -0.70313,1.55273 -0.46877,0.39066 -1.15237,0.58598 -2.05078,0.58594 -0.58596,4e-5 -1.41604,-0.0976 -2.49023,-0.29297 -0.93752,-0.15621 -1.80666,-0.23434 -2.60742,-0.23437 -0.8008,3e-5 -1.40627,0.16605 -1.81641,0.49804 -0.56642,0.46879 -1.084,1.45512 -1.55273,2.95899 -0.44924,1.50394 -1.19143,4.47268 -2.22657,8.90625 l -2.90039,12.27539 c -1.44532,6.15235 -2.16798,9.36523 -2.16797,9.63867 -1e-5,0.625 0.2246,0.9375 0.67383,0.9375 0.42968,0 1.05468,-0.2539 1.875,-0.76172 1.62108,-1.01562 3.24217,-2.31445 4.86328,-3.89648" />
      </g>
    </g>
    <g
       transform="matrix(0.12574808,0,0,0.12574808,309.14621,442.36548)"
       inkscape:label="Layer 1"
       id="g3095">
      <g
         id="g3877">
        <g
           id="g3883">
          <rect
             style="fill:#ffffff;fill-opacity:1;fill-rule:nonzero;stroke:#000000;stroke-width:10.56159496;stroke-linecap:round;stroke-linejoin:round;stroke-miterlimit:4;stroke-opacity:1;stroke-dasharray:none;stroke-dashoffset:0"
             id="rect3097"
             width="551.30042"
             height="295.84015"
             x="-251.32391"
             y="605.9577"
             ry="35.787117"
             transform="matrix(0.970005,-0.2430848,0.4529341,0.891544,0,0)"
             inkscape:export-filename="/home/rob/Desktop/mail.png"
             inkscape:export-xdpi="50"
             inkscape:export-ydpi="50" />
          <rect
             style="opacity:0.75233645;fill:url(#radialGradient3889);fill-opacity:1;fill-rule:nonzero;stroke:#660066;stroke-width:10.56159496;stroke-linecap:round;stroke-linejoin:round;stroke-miterlimit:4;stroke-opacity:1;stroke-dasharray:none;stroke-dashoffset:0"
             id="rect3099"
             width="551.30042"
             height="295.84015"
             x="-249.42505"
             y="605.23529"
             ry="35.787117"
             transform="matrix(0.970005,-0.2430848,0.4529341,0.891544,0,0)" />
          <path
             inkscape:connector-curvature="0"
             style="opacity:0.75233645;fill:none;stroke:#660066;stroke-width:10.42822361;stroke-linecap:round;stroke-linejoin:round;stroke-miterlimit:4;stroke-opacity:1;stroke-dashoffset:0"
             d="m 75.533638,589.09275 448.772182,-112.463 c 19.73409,-4.5215 38.98062,0.90983 41.05169,5.48026 L 391.40405,650.78046 c -9.05,6.96555 -38.67963,15.62757 -58.58,12.91056 L 47.891036,607.37349 c 1.900561,-4.8164 6.564281,-12.36265 27.642602,-18.28074 z"
             id="path3101"
             sodipodi:nodetypes="ccccccc" />
          <path
             inkscape:connector-curvature="0"
             style="opacity:0.75233645;fill:none;stroke:#660066;stroke-width:10.34361649;stroke-linecap:round;stroke-linejoin:round;stroke-miterlimit:4;stroke-opacity:1;stroke-dashoffset:0"
             d="M 211.29386,853.06456 660.14232,740.58244 c 19.35848,-5.2682 29.44035,-17.88185 26.96163,-22.26705 L 426.5385,617.69655 394.58067,649.40417 c -9.13379,9.65731 -35.57983,17.466 -57.0078,16.02703 L 277.42155,655.06549 173.49618,851.36865 c 5.78111,2.82051 16.14734,6.49611 37.79768,1.69591 z"
             id="path3103"
             sodipodi:nodetypes="ccccccccc" />
        </g>
      </g>
    </g>
  </g>
</svg>
